<svg xmlns="http://www.w3.org/2000/svg" xmlns:xlink="http://www.w3.org/1999/xlink" contentStyleType="text/css" data-diagram-type="DESCRIPTION" height="689px" preserveAspectRatio="none" style="width:868px;height:689px;background:#FFFFFF;" version="1.1" viewBox="0 0 868 689" width="868px" zoomAndPan="magnify"><title>Bitcoin Clicker - Component Architecture</title><defs/><g><text fill="#000000" font-family="sans-serif" font-size="14" font-weight="bold" lengthAdjust="spacing" textLength="298.1494" x="278.3253" y="23.5352">Bitcoin Clicker - Component Architecture</text><!--cluster bot_services--><g class="cluster" data-entity="bot_services" data-source-line="7" data-uid="ent0004" id="cluster_bot_services"><rect fill="none" height="97.49" rx="2.5" ry="2.5" style="stroke:#181818;stroke-width:1;" width="492" x="297" y="240.9683"/><text fill="#000000" font-family="sans-serif" font-size="14" font-weight="bold" lengthAdjust="spacing" textLength="119.54" x="483.23" y="256.5034">Bot Services (x5)</text></g><!--cluster game_services--><g class="cluster" data-entity="game_services" data-source-line="15" data-uid="ent0010" id="cluster_game_services"><rect fill="none" height="113.97" rx="2.5" ry="2.5" style="stroke:#181818;stroke-width:1;" width="404" x="7" y="362.4583"/><text fill="#000000" font-family="sans-serif" font-size="14" font-weight="bold" lengthAdjust="spacing" textLength="136.5547" x="140.7227" y="377.9934">Game Services (x3)</text></g><!--cluster lb_services--><g class="cluster" data-entity="lb_services" data-source-line="21" data-uid="ent0014" id="cluster_lb_services"><rect fill="none" height="113.97" rx="2.5" ry="2.5" style="stroke:#181818;stroke-width:1;" width="249" x="487" y="362.4583"/><text fill="#000000" font-family="sans-serif" font-size="14" font-weight="bold" lengthAdjust="spacing" textLength="186.6143" x="518.1929" y="377.9934">Leaderboard Services (x2)</text></g><!--entity BS1--><g class="entity" data-entity="BS1" data-source-line="8" data-uid="ent0005" id="entity_BS1"><rect fill="#F1F1F1" height="46.4883" rx="2.5" ry="2.5" style="stroke:#181818;stroke-width:0.5;" width="64.4453" x="312.78" y="275.9683"/><rect fill="#F1F1F1" height="10" style="stroke:#181818;stroke-width:0.5;" width="15" x="357.2253" y="280.9683"/><rect fill="#F1F1F1" height="2" style="stroke:#181818;stroke-width:0.5;" width="4" x="355.2253" y="282.9683"/><rect fill="#F1F1F1" height="2" style="stroke:#181818;stroke-width:0.5;" width="4" x="355.2253" y="286.9683"/><text fill="#000000" font-family="sans-serif" font-size="14" lengthAdjust="spacing" textLength="24.4453" x="327.78" y="309.5034">BS1</text></g><!--entity BS2--><g class="entity" data-entity="BS2" data-source-line="9" data-uid="ent0006" id="entity_BS2"><rect fill="#F1F1F1" height="46.4883" rx="2.5" ry="2.5" style="stroke:#181818;stroke-width:0.5;" width="64.4453" x="411.78" y="275.9683"/><rect fill="#F1F1F1" height="10" style="stroke:#181818;stroke-width:0.5;" width="15" x="456.2253" y="280.9683"/><rect fill="#F1F1F1" height="2" style="stroke:#181818;stroke-width:0.5;" width="4" x="454.2253" y="282.9683"/><rect fill="#F1F1F1" height="2" style="stroke:#181818;stroke-width:0.5;" width="4" x="454.2253" y="286.9683"/><text fill="#000000" font-family="sans-serif" font-size="14" lengthAdjust="spacing" textLength="24.4453" x="426.78" y="309.5034">BS2</text></g><!--entity BS3--><g class="entity" data-entity="BS3" data-source-line="10" data-uid="ent0007" id="entity_BS3"><rect fill="#F1F1F1" height="46.4883" rx="2.5" ry="2.5" style="stroke:#181818;stroke-width:0.5;" width="64.4453" x="510.78" y="275.9683"/><rect fill="#F1F1F1" height="10" style="stroke:#181818;stroke-width:0.5;" width="15" x="555.2253" y="280.9683"/><rect fill="#F1F1F1" height="2" style="stroke:#181818;stroke-width:0.5;" width="4" x="553.2253" y="282.9683"/><rect fill="#F1F1F1" height="2" style="stroke:#181818;stroke-width:0.5;" width="4" x="553.2253" y="286.9683"/><text fill="#000000" font-family="sans-serif" font-size="14" lengthAdjust="spacing" textLength="24.4453" x="525.78" y="309.5034">BS3</text></g><!--entity BS4--><g class="entity" data-entity="BS4" data-source-line="11" data-uid="ent0008" id="entity_BS4"><rect fill="#F1F1F1" height="46.4883" rx="2.5" ry="2.5" style="stroke:#181818;stroke-width:0.5;" width="64.4453" x="609.78" y="275.9683"/><rect fill="#F1F1F1" height="10" style="stroke:#181818;stroke-width:0.5;" width="15" x="654.2253" y="280.9683"/><rect fill="#F1F1F1" height="2" style="stroke:#181818;stroke-width:0.5;" width="4" x="652.2253" y="282.9683"/><rect fill="#F1F1F1" height="2" style="stroke:#181818;stroke-width:0.5;" width="4" x="652.2253" y="286.9683"/><text fill="#000000" font-family="sans-serif" font-size="14" lengthAdjust="spacing" textLength="24.4453" x="624.78" y="309.5034">BS4</text></g><!--entity BS5--><g class="entity" data-entity="BS5" data-source-line="12" data-uid="ent0009" id="entity_BS5"><rect fill="#F1F1F1" height="46.4883" rx="2.5" ry="2.5" style="stroke:#181818;stroke-width:0.5;" width="64.4453" x="708.78" y="275.9683"/><rect fill="#F1F1F1" height="10" style="stroke:#181818;stroke-width:0.5;" width="15" x="753.2253" y="280.9683"/><rect fill="#F1F1F1" height="2" style="stroke:#181818;stroke-width:0.5;" width="4" x="751.2253" y="282.9683"/><rect fill="#F1F1F1" height="2" style="stroke:#181818;stroke-width:0.5;" width="4" x="751.2253" y="286.9683"/><text fill="#000000" font-family="sans-serif" font-size="14" lengthAdjust="spacing" textLength="24.4453" x="723.78" y="309.5034">BS5</text></g><!--entity GS1--><g class="entity" data-entity="GS1" data-source-line="16" data-uid="ent0011" id="entity_GS1"><rect fill="#F1F1F1" height="62.9766" rx="2.5" ry="2.5" style="stroke:#181818;stroke-width:0.5;" width="100.8877" x="294.56" y="397.4583"/><rect fill="#F1F1F1" height="10" style="stroke:#181818;stroke-width:0.5;" width="15" x="375.4477" y="402.4583"/><rect fill="#F1F1F1" height="2" style="stroke:#181818;stroke-width:0.5;" width="4" x="373.4477" y="404.4583"/><rect fill="#F1F1F1" height="2" style="stroke:#181818;stroke-width:0.5;" width="4" x="373.4477" y="408.4583"/><text fill="#000000" font-family="sans-serif" font-size="14" lengthAdjust="spacing" textLength="26.5098" x="309.56" y="430.9934">GS1</text><text fill="#000000" font-family="sans-serif" font-size="14" lengthAdjust="spacing" textLength="60.8877" x="309.56" y="447.4817">(Shard 0)</text></g><!--entity GS2--><g class="entity" data-entity="GS2" data-source-line="17" data-uid="ent0012" id="entity_GS2"><rect fill="#F1F1F1" height="62.9766" rx="2.5" ry="2.5" style="stroke:#181818;stroke-width:0.5;" width="100.8877" x="22.56" y="397.4583"/><rect fill="#F1F1F1" height="10" style="stroke:#181818;stroke-width:0.5;" width="15" x="103.4477" y="402.4583"/><rect fill="#F1F1F1" height="2" style="stroke:#181818;stroke-width:0.5;" width="4" x="101.4477" y="404.4583"/><rect fill="#F1F1F1" height="2" style="stroke:#181818;stroke-width:0.5;" width="4" x="101.4477" y="408.4583"/><text fill="#000000" font-family="sans-serif" font-size="14" lengthAdjust="spacing" textLength="26.5098" x="37.56" y="430.9934">GS2</text><text fill="#000000" font-family="sans-serif" font-size="14" lengthAdjust="spacing" textLength="60.8877" x="37.56" y="447.4817">(Shard 1)</text></g><!--entity GS3--><g class="entity" data-entity="GS3" data-source-line="18" data-uid="ent0013" id="entity_GS3"><rect fill="#F1F1F1" height="62.9766" rx="2.5" ry="2.5" style="stroke:#181818;stroke-width:0.5;" width="100.8877" x="158.56" y="397.4583"/><rect fill="#F1F1F1" height="10" style="stroke:#181818;stroke-width:0.5;" width="15" x="239.4477" y="402.4583"/><rect fill="#F1F1F1" height="2" style="stroke:#181818;stroke-width:0.5;" width="4" x="237.4477" y="404.4583"/><rect fill="#F1F1F1" height="2" style="stroke:#181818;stroke-width:0.5;" width="4" x="237.4477" y="408.4583"/><text fill="#000000" font-family="sans-serif" font-size="14" lengthAdjust="spacing" textLength="26.5098" x="173.56" y="430.9934">GS3</text><text fill="#000000" font-family="sans-serif" font-size="14" lengthAdjust="spacing" textLength="60.8877" x="173.56" y="447.4817">(Shard 2)</text></g><!--entity LS1--><g class="entity" data-entity="LS1" data-source-line="22" data-uid="ent0015" id="entity_LS1"><rect fill="#F1F1F1" height="62.9766" rx="2.5" ry="2.5" style="stroke:#181818;stroke-width:0.5;" width="100.2588" x="502.87" y="397.4583"/><rect fill="#F1F1F1" height="10" style="stroke:#181818;stroke-width:0.5;" width="15" x="583.1288" y="402.4583"/><rect fill="#F1F1F1" height="2" style="stroke:#181818;stroke-width:0.5;" width="4" x="581.1288" y="404.4583"/><rect fill="#F1F1F1" height="2" style="stroke:#181818;stroke-width:0.5;" width="4" x="581.1288" y="408.4583"/><text fill="#000000" font-family="sans-serif" font-size="14" lengthAdjust="spacing" textLength="23.8574" x="517.87" y="430.9934">LS1</text><text fill="#000000" font-family="sans-serif" font-size="14" lengthAdjust="spacing" textLength="60.2588" x="517.87" y="447.4817">(Refresh)</text></g><!--entity LS2--><g class="entity" data-entity="LS2" data-source-line="23" data-uid="ent0016" id="entity_LS2"><rect fill="#F1F1F1" height="62.9766" rx="2.5" ry="2.5" style="stroke:#181818;stroke-width:0.5;" width="82.3008" x="637.85" y="397.4583"/><rect fill="#F1F1F1" height="10" style="stroke:#181818;stroke-width:0.5;" width="15" x="700.1508" y="402.4583"/><rect fill="#F1F1F1" height="2" style="stroke:#181818;stroke-width:0.5;" width="4" x="698.1508" y="404.4583"/><rect fill="#F1F1F1" height="2" style="stroke:#181818;stroke-width:0.5;" width="4" x="698.1508" y="408.4583"/><text fill="#000000" font-family="sans-serif" font-size="14" lengthAdjust="spacing" textLength="23.8574" x="652.85" y="430.9934">LS2</text><text fill="#000000" font-family="sans-serif" font-size="14" lengthAdjust="spacing" textLength="42.3008" x="652.85" y="447.4817">(Read)</text></g><!--entity Telegram--><g class="entity" data-entity="Telegram" data-source-line="3" data-uid="ent0002" id="entity_Telegram"><ellipse cx="492.9994" cy="51.4883" fill="#F1F1F1" rx="8" ry="8" style="stroke:#181818;stroke-width:0.5;"/><path d="M492.9994,59.4883 L492.9994,86.4883 M479.9994,67.4883 L505.9994,67.4883 M492.9994,86.4883 L479.9994,101.4883 M492.9994,86.4883 L505.9994,101.4883" fill="none" style="stroke:#181818;stroke-width:0.5;"/><text fill="#000000" font-family="sans-serif" font-size="14" lengthAdjust="spacing" textLength="63.7588" x="461.12" y="116.5234">Telegram</text></g><!--entity nginx--><g class="entity" data-entity="nginx" data-source-line="5" data-uid="ent0003" id="entity_nginx"><rect fill="#F1F1F1" height="36.4883" rx="2.5" ry="2.5" style="stroke:#181818;stroke-width:0.5;" width="158.8105" x="413.59" y="179.4783"/><text fill="#000000" font-family="sans-serif" font-size="14" lengthAdjust="spacing" textLength="138.8105" x="423.59" y="203.0134">Nginx Load Balancer</text></g><!--entity PostgreSQL--><g class="entity" data-entity="PostgreSQL" data-source-line="26" data-uid="ent0017" id="entity_PostgreSQL"><path d="M504.58,636.9183 C504.58,626.9183 553.0048,626.9183 553.0048,626.9183 C553.0048,626.9183 601.4296,626.9183 601.4296,636.9183 L601.4296,662.4066 C601.4296,672.4066 553.0048,672.4066 553.0048,672.4066 C553.0048,672.4066 504.58,672.4066 504.58,662.4066 L504.58,636.9183" fill="#F1F1F1" style="stroke:#181818;stroke-width:0.5;"/><path d="M504.58,636.9183 C504.58,646.9183 553.0048,646.9183 553.0048,646.9183 C553.0048,646.9183 601.4296,646.9183 601.4296,636.9183" fill="none" style="stroke:#181818;stroke-width:0.5;"/><text fill="#000000" font-family="sans-serif" font-size="14" lengthAdjust="spacing" textLength="76.8496" x="514.58" y="664.4534">PostgreSQL</text></g><!--entity Redis--><g class="entity" data-entity="Redis" data-source-line="27" data-uid="ent0018" id="entity_Redis"><path d="M180.68,530.9283 C180.68,520.9283 209.0037,520.9283 209.0037,520.9283 C209.0037,520.9283 237.3275,520.9283 237.3275,530.9283 L237.3275,556.4166 C237.3275,566.4166 209.0037,566.4166 209.0037,566.4166 C209.0037,566.4166 180.68,566.4166 180.68,556.4166 L180.68,530.9283" fill="#F1F1F1" style="stroke:#181818;stroke-width:0.5;"/><path d="M180.68,530.9283 C180.68,540.9283 209.0037,540.9283 209.0037,540.9283 C209.0037,540.9283 237.3275,540.9283 237.3275,530.9283" fill="none" style="stroke:#181818;stroke-width:0.5;"/><text fill="#000000" font-family="sans-serif" font-size="14" lengthAdjust="spacing" textLength="36.6475" x="190.68" y="558.4634">Redis</text></g><!--entity PgBouncer--><g class="entity" data-entity="PgBouncer" data-source-line="28" data-uid="ent0019" id="entity_PgBouncer"><rect fill="#F1F1F1" height="46.4883" rx="2.5" ry="2.5" style="stroke:#181818;stroke-width:0.5;" width="111.1963" x="281.4" y="520.4283"/><rect fill="#F1F1F1" height="10" style="stroke:#181818;stroke-width:0.5;" width="15" x="372.5963" y="525.4283"/><rect fill="#F1F1F1" height="2" style="stroke:#181818;stroke-width:0.5;" width="4" x="370.5963" y="527.4283"/><rect fill="#F1F1F1" height="2" style="stroke:#181818;stroke-width:0.5;" width="4" x="370.5963" y="531.4283"/><text fill="#000000" font-family="sans-serif" font-size="14" lengthAdjust="spacing" textLength="71.1963" x="296.4" y="553.9634">PgBouncer</text></g><!--link Telegram to nginx--><g class="link" data-entity-1="Telegram" data-entity-2="nginx" data-source-line="30" data-uid="lnk20" id="link_Telegram_nginx"><path d="M493,119.7183 C493,139.6783 493,157.2883 493,173.0483" fill="none" id="Telegram-to-nginx" style="stroke:#181818;stroke-width:1;"/><polygon fill="#181818" points="493,179.0483,497,170.0483,493,174.0483,489,170.0483,493,179.0483" style="stroke:#181818;stroke-width:1;"/></g><!--link nginx to BS1--><g class="link" data-entity-1="nginx" data-entity-2="BS1" data-source-line="31" data-uid="lnk21" id="link_nginx_BS1"><path d="M424.57,216.3683 C413.79,220.8083 403.19,226.2683 394,232.9683 C378.66,244.1483 369.0958,256.3891 360.4758,270.3891" fill="none" id="nginx-to-BS1" style="stroke:#181818;stroke-width:1;"/><polygon fill="#181818" points="357.33,275.4983,365.4548,269.9317,359.9515,271.2406,358.6426,265.7373,357.33,275.4983" style="stroke:#181818;stroke-width:1;"/></g><!--link nginx to BS2--><g class="link" data-entity-1="nginx" data-entity-2="BS2" data-source-line="32" data-uid="lnk22" id="link_nginx_BS2"><path d="M484.46,216.0483 C476.35,232.5283 466.7398,252.0351 457.8498,270.0951" fill="none" id="nginx-to-BS2" style="stroke:#181818;stroke-width:1;"/><polygon fill="#181818" points="455.2,275.4783,462.7635,269.1701,457.4082,270.9923,455.586,265.637,455.2,275.4783" style="stroke:#181818;stroke-width:1;"/></g><!--link nginx to BS3--><g class="link" data-entity-1="nginx" data-entity-2="BS3" data-source-line="33" data-uid="lnk23" id="link_nginx_BS3"><path d="M501.71,216.0483 C509.99,232.5283 519.8049,252.0577 528.8849,270.1177" fill="none" id="nginx-to-BS3" style="stroke:#181818;stroke-width:1;"/><polygon fill="#181818" points="531.58,275.4783,531.111,265.6406,529.334,271.0111,523.9635,269.2341,531.58,275.4783" style="stroke:#181818;stroke-width:1;"/></g><!--link nginx to BS4--><g class="link" data-entity-1="nginx" data-entity-2="BS4" data-source-line="34" data-uid="lnk24" id="link_nginx_BS4"><path d="M562.39,216.3883 C573.18,220.8183 583.8,226.2783 593,232.9683 C608.36,244.1283 617.9142,256.3691 626.5342,270.3691" fill="none" id="nginx-to-BS4" style="stroke:#181818;stroke-width:1;"/><polygon fill="#181818" points="629.68,275.4783,628.3674,265.7173,627.0585,271.2206,621.5552,269.9117,629.68,275.4783" style="stroke:#181818;stroke-width:1;"/></g><!--link nginx to BS5--><g class="link" data-entity-1="nginx" data-entity-2="BS5" data-source-line="35" data-uid="lnk25" id="link_nginx_BS5"><path d="M572.9,206.4283 C619.17,212.0383 672.11,220.8083 692,232.9683 C708.56,243.0883 718.4324,255.8608 726.8124,270.3908" fill="none" id="nginx-to-BS5" style="stroke:#181818;stroke-width:1;"/><polygon fill="#181818" points="729.81,275.5883,728.7786,265.7936,727.312,271.257,721.8486,269.7904,729.81,275.5883" style="stroke:#181818;stroke-width:1;"/></g><!--link nginx to GS1--><g class="link" data-entity-1="nginx" data-entity-2="GS1" data-source-line="37" data-uid="lnk26" id="link_nginx_GS1"><path d="M413.35,202.4583 C365.89,206.5383 312.03,215.0883 297,232.9683 C257.3,280.2083 292.1604,350.3039 319.4904,392.1739" fill="none" id="nginx-to-GS1" style="stroke:#181818;stroke-width:1;"/><polygon fill="#181818" points="322.77,397.1983,321.2002,387.4753,320.037,393.0113,314.501,391.8481,322.77,397.1983" style="stroke:#181818;stroke-width:1;"/></g><!--link nginx to GS2--><g class="link" data-entity-1="nginx" data-entity-2="GS2" data-source-line="38" data-uid="lnk27" id="link_nginx_GS2"><path d="M413.13,201.0683 C341.11,204.4683 241.51,212.7783 208,232.9683 C144.35,271.3283 105.6565,346.9835 87.0065,391.5435" fill="none" id="nginx-to-GS2" style="stroke:#181818;stroke-width:1;"/><polygon fill="#181818" points="84.69,397.0783,91.8546,390.3205,86.6204,392.466,84.4749,387.2318,84.69,397.0783" style="stroke:#181818;stroke-width:1;"/></g><!--link nginx to GS3--><g class="link" data-entity-1="nginx" data-entity-2="GS3" data-source-line="39" data-uid="lnk28" id="link_nginx_GS3"><path d="M413.32,202.3883 C358.91,206.4683 293.01,215.0483 272,232.9683 C223.41,274.3983 212.3319,347.598 209.8419,391.228" fill="none" id="nginx-to-GS3" style="stroke:#181818;stroke-width:1;"/><polygon fill="#181818" points="209.5,397.2183,214.0063,388.4608,209.7849,392.2264,206.0193,388.005,209.5,397.2183" style="stroke:#181818;stroke-width:1;"/></g><!--link nginx to LS1--><g class="link" data-entity-1="nginx" data-entity-2="LS1" data-source-line="41" data-uid="lnk29" id="link_nginx_LS1"><path d="M572.86,202.5683 C655.58,207.3883 774.78,217.0083 789,232.9683 C822.55,270.6283 823.81,309.9583 789,346.4583 C776.03,360.0583 637.01,346.4583 620,354.4583 C600.47,363.6383 587.6199,376.5533 575.9099,392.3033" fill="none" id="nginx-to-LS1" style="stroke:#181818;stroke-width:1;"/><polygon fill="#181818" points="572.33,397.1183,580.9099,392.2824,575.3133,393.1058,574.4899,387.5092,572.33,397.1183" style="stroke:#181818;stroke-width:1;"/></g><!--link nginx to LS2--><g class="link" data-entity-1="nginx" data-entity-2="LS2" data-source-line="42" data-uid="lnk30" id="link_nginx_LS2"><path d="M572.5,201.3583 C666.14,205.2883 811.18,214.3383 828,232.9683 C861.8,270.3983 853.72,303.0683 828,346.4583 C804.92,385.3883 761.681,405.1519 726.161,416.1619" fill="none" id="nginx-to-LS2" style="stroke:#181818;stroke-width:1;"/><polygon fill="#181818" points="720.43,417.9383,730.2108,419.0943,725.2058,416.4579,727.8422,411.453,720.43,417.9383" style="stroke:#181818;stroke-width:1;"/></g><!--link BS1 to GS1--><g class="link" data-entity-1="BS1" data-entity-2="GS1" data-source-line="44" data-uid="lnk31" id="link_BS1_GS1"><path d="M345,322.7483 C345,343.3783 345,368.0883 345,390.9983" fill="none" id="BS1-to-GS1" style="stroke:#181818;stroke-width:1;"/><polygon fill="#181818" points="345,396.9983,349,387.9983,345,391.9983,341,387.9983,345,396.9983" style="stroke:#181818;stroke-width:1;"/></g><!--link BS1 to LS1--><g class="link" data-entity-1="BS1" data-entity-2="LS1" data-source-line="45" data-uid="lnk32" id="link_BS1_LS1"><path d="M365.68,322.5183 C373.98,330.6883 383.95,339.6083 394,346.4583 C400.9,351.1583 403.51,350.7583 411,354.4583 C441.61,369.5683 470.2747,384.3448 497.3147,398.5048" fill="none" id="BS1-to-LS1" style="stroke:#181818;stroke-width:1;"/><polygon fill="#181818" points="502.63,401.2883,496.5127,393.5696,498.2006,398.9687,492.8014,400.6566,502.63,401.2883" style="stroke:#181818;stroke-width:1;"/></g><!--link GS1 to PgBouncer--><g class="link" data-entity-1="GS1" data-entity-2="PgBouncer" data-source-line="47" data-uid="lnk33" id="link_GS1_PgBouncer"><path d="M342.81,460.7483 C341.48,479.5183 340.235,497.1134 339.025,514.1534" fill="none" id="GS1-to-PgBouncer" style="stroke:#181818;stroke-width:1;"/><polygon fill="#181818" points="338.6,520.1383,343.2274,511.4442,338.9542,515.1508,335.2475,510.8776,338.6,520.1383" style="stroke:#181818;stroke-width:1;"/></g><!--link GS2 to PgBouncer--><g class="link" data-entity-1="GS2" data-entity-2="PgBouncer" data-source-line="48" data-uid="lnk34" id="link_GS2_PgBouncer"><path d="M106.13,460.7183 C116.69,469.3183 128.8,478.0483 141,484.4283 C153.66,491.0583 222.1416,510.7729 275.5116,525.6929" fill="none" id="GS2-to-PgBouncer" style="stroke:#181818;stroke-width:1;"/><polygon fill="#181818" points="281.29,527.3083,273.6993,521.0329,276.4746,525.9621,271.5454,528.7375,281.29,527.3083" style="stroke:#181818;stroke-width:1;"/></g><!--link GS3 to PgBouncer--><g class="link" data-entity-1="GS3" data-entity-2="PgBouncer" data-source-line="49" data-uid="lnk35" id="link_GS3_PgBouncer"><path d="M243.98,460.7483 C265.29,479.5183 287.5581,499.1318 306.8981,516.1718" fill="none" id="GS3-to-PgBouncer" style="stroke:#181818;stroke-width:1;"/><polygon fill="#181818" points="311.4,520.1383,307.2915,511.1873,307.6484,516.8329,302.0029,517.1898,311.4,520.1383" style="stroke:#181818;stroke-width:1;"/></g><!--link PgBouncer to PostgreSQL--><g class="link" data-entity-1="PgBouncer" data-entity-2="PostgreSQL" data-source-line="50" data-uid="lnk36" id="link_PgBouncer_PostgreSQL"><path d="M384.14,567.3683 C420.63,584.9383 465.4837,606.536 501.6737,623.956" fill="none" id="PgBouncer-to-PostgreSQL" style="stroke:#181818;stroke-width:1;"/><polygon fill="#181818" points="507.08,626.5583,500.7054,619.0506,502.5748,624.3897,497.2357,626.259,507.08,626.5583" style="stroke:#181818;stroke-width:1;"/></g><!--link LS1 to PostgreSQL--><g class="link" data-entity-1="LS1" data-entity-2="PostgreSQL" data-source-line="52" data-uid="lnk37" id="link_LS1_PostgreSQL"><path d="M553,460.8183 C553,505.5683 553,581.3683 553,620.5683" fill="none" id="LS1-to-PostgreSQL" style="stroke:#181818;stroke-width:1;"/><polygon fill="#181818" points="553,626.5683,557,617.5683,553,621.5683,549,617.5683,553,626.5683" style="stroke:#181818;stroke-width:1;"/></g><!--link LS2 to PostgreSQL--><g class="link" data-entity-1="LS2" data-entity-2="PostgreSQL" data-source-line="53" data-uid="lnk38" id="link_LS2_PostgreSQL"><path d="M661.21,460.8183 C635.44,505.5683 591.3048,582.1691 568.7248,621.3691" fill="none" id="LS2-to-PostgreSQL" style="stroke:#181818;stroke-width:1;"/><polygon fill="#181818" points="565.73,626.5683,573.6883,620.7661,568.2257,622.2357,566.7561,616.773,565.73,626.5683" style="stroke:#181818;stroke-width:1;"/></g><!--link GS1 to Redis--><g class="link" data-entity-1="GS1" data-entity-2="Redis" data-source-line="55" data-uid="lnk39" id="link_GS1_Redis"><path d="M307.84,460.7483 C285.03,479.6583 260.9692,499.5991 240.3892,516.6591" fill="none" id="GS1-to-Redis" style="stroke:#181818;stroke-width:1;"/><polygon fill="#181818" points="235.77,520.4883,245.2517,517.824,239.6194,517.2973,240.1461,511.665,235.77,520.4883" style="stroke:#181818;stroke-width:1;"/></g><!--link GS2 to Redis--><g class="link" data-entity-1="GS2" data-entity-2="Redis" data-source-line="56" data-uid="lnk40" id="link_GS2_Redis"><path d="M110.16,460.7483 C132.97,479.6583 157.0308,499.5991 177.6108,516.6591" fill="none" id="GS2-to-Redis" style="stroke:#181818;stroke-width:1;"/><polygon fill="#181818" points="182.23,520.4883,177.8539,511.665,178.3806,517.2973,172.7483,517.824,182.23,520.4883" style="stroke:#181818;stroke-width:1;"/></g><!--link GS3 to Redis--><g class="link" data-entity-1="GS3" data-entity-2="Redis" data-source-line="57" data-uid="lnk41" id="link_GS3_Redis"><path d="M209,460.7483 C209,479.6583 209,497.4283 209,514.4883" fill="none" id="GS3-to-Redis" style="stroke:#181818;stroke-width:1;"/><polygon fill="#181818" points="209,520.4883,213,511.4883,209,515.4883,205,511.4883,209,520.4883" style="stroke:#181818;stroke-width:1;"/></g><!--SRC=[TPB1QyCW6CNl_XKVFNM7mfgqry7IGouokcR7mJ3cQofBTQWTXR7_VJ6fYJfw2RxdZ_SzDLRO3g4GbYiXOTS9_eaQLh1JvoybKLfurlmaB79xqKW8urPfUCCEMytEXEX-WycsprYyj49UWIhMGC4w9Zdg1J03qlaHMIWB5UflmT70yhfz6BXQsG_ZtHy2mASEHRLET9ReFD6RH6_9RrIXP6SCE-HZXxQtxvLObDNwNIwh4zCDF8vycHJhcMnYrfx9KYQVcCmpULAG8cjGryf1GSyRtzLtMzAXvG6F6irff6dQaWuj3_q83sHkVCCigvb1s2jZMutLAvsz0pR2a3batnRguXwP4Fyxm6hrT7lkuJjeztQXoYALHseJgIq9P1d5b56Ckxr0qWXrPoDzYId5hnr6ofkOJzD7_tFon9bMep_V5g4-R_Qe3mmmFtQyL3_IgpnGVm00]--></g></svg>