<svg xmlns="http://www.w3.org/2000/svg" xmlns:xlink="http://www.w3.org/1999/xlink" contentStyleType="text/css" data-diagram-type="DESCRIPTION" height="626px" preserveAspectRatio="none" style="width:1008px;height:626px;background:#FFFFFF;" version="1.1" viewBox="0 0 1008 626" width="1008px" zoomAndPan="magnify"><title>Deployment Architecture</title><defs/><g><text fill="#000000" font-family="sans-serif" font-size="14" font-weight="bold" lengthAdjust="spacing" textLength="180.1338" x="406.9331" y="23.5352">Deployment Architecture</text><!--cluster Docker Host--><g class="cluster" data-entity="Docker Host" data-source-line="132" data-uid="ent0002" id="cluster_Docker Host"><polygon fill="none" points="16,53.4883,26,43.4883,991,43.4883,991,599.9283,981,609.9283,16,609.9283,16,53.4883" style="stroke:#181818;stroke-width:1;"/><line style="stroke:#181818;stroke-width:1;" x1="981" x2="991" y1="53.4883" y2="43.4883"/><line style="stroke:#181818;stroke-width:1;" x1="16" x2="981" y1="53.4883" y2="53.4883"/><line style="stroke:#181818;stroke-width:1;" x1="981" x2="981" y1="53.4883" y2="609.9283"/><text fill="#000000" font-family="sans-serif" font-size="14" font-weight="bold" lengthAdjust="spacing" textLength="88.9902" x="455.0049" y="70.0234">Docker Host</text></g><!--cluster Bot Services--><g class="cluster" data-entity="Bot Services" data-source-line="136" data-uid="ent0004" id="cluster_Bot Services"><rect fill="none" height="203.97" rx="2.5" ry="2.5" style="stroke:#181818;stroke-width:1;" width="396" x="40" y="154.9783"/><path d="M137.042,154.9783 L137.042,164.4666 L127.042,174.4666 L40,174.4666" fill="none" style="stroke:#181818;stroke-width:1;"/><text fill="#000000" font-family="sans-serif" font-size="14" font-weight="bold" lengthAdjust="spacing" textLength="87.042" x="43" y="169.5134">Bot Services</text></g><!--cluster Game Services--><g class="cluster" data-entity="Game Services" data-source-line="144" data-uid="ent0010" id="cluster_Game Services"><rect fill="none" height="97.48" rx="2.5" ry="2.5" style="stroke:#181818;stroke-width:1;" width="296" x="460" y="261.4683"/><path d="M574.0566,261.4683 L574.0566,270.9566 L564.0566,280.9566 L460,280.9566" fill="none" style="stroke:#181818;stroke-width:1;"/><text fill="#000000" font-family="sans-serif" font-size="14" font-weight="bold" lengthAdjust="spacing" textLength="104.0566" x="463" y="276.0034">Game Services</text></g><!--cluster Leaderboard--><g class="cluster" data-entity="Leaderboard" data-source-line="150" data-uid="ent0014" id="cluster_Leaderboard"><rect fill="none" height="97.48" rx="2.5" ry="2.5" style="stroke:#181818;stroke-width:1;" width="187" x="780" y="261.4683"/><path d="M880.5078,261.4683 L880.5078,270.9566 L870.5078,280.9566 L780,280.9566" fill="none" style="stroke:#181818;stroke-width:1;"/><text fill="#000000" font-family="sans-serif" font-size="14" font-weight="bold" lengthAdjust="spacing" textLength="90.5078" x="783" y="276.0034">Leaderboard</text></g><!--cluster Data Layer--><g class="cluster" data-entity="Data Layer" data-source-line="155" data-uid="ent0017" id="cluster_Data Layer"><rect fill="none" height="202.98" rx="2.5" ry="2.5" style="stroke:#181818;stroke-width:1;" width="234" x="572" y="382.9483"/><path d="M658.9521,382.9483 L658.9521,392.4366 L648.9521,402.4366 L572,402.4366" fill="none" style="stroke:#181818;stroke-width:1;"/><text fill="#000000" font-family="sans-serif" font-size="14" font-weight="bold" lengthAdjust="spacing" textLength="76.9521" x="575" y="397.4834">Data Layer</text></g><!--cluster Monitoring--><g class="cluster" data-entity="Monitoring" data-source-line="161" data-uid="ent0021" id="cluster_Monitoring"><rect fill="none" height="97.49" rx="2.5" ry="2.5" style="stroke:#181818;stroke-width:1;" width="398" x="150" y="382.9483"/><path d="M239.3584,382.9483 L239.3584,392.4366 L229.3584,402.4366 L150,402.4366" fill="none" style="stroke:#181818;stroke-width:1;"/><text fill="#000000" font-family="sans-serif" font-size="14" font-weight="bold" lengthAdjust="spacing" textLength="79.3584" x="153" y="397.4834">Monitoring</text></g><!--entity nginx--><g class="entity" data-entity="nginx" data-source-line="134" data-uid="ent0003" id="entity_nginx"><rect fill="#F1F1F1" height="46.4883" rx="2.5" ry="2.5" style="stroke:#181818;stroke-width:0.5;" width="78.7393" x="395.63" y="83.4883"/><rect fill="#F1F1F1" height="10" style="stroke:#181818;stroke-width:0.5;" width="15" x="454.3693" y="88.4883"/><rect fill="#F1F1F1" height="2" style="stroke:#181818;stroke-width:0.5;" width="4" x="452.3693" y="90.4883"/><rect fill="#F1F1F1" height="2" style="stroke:#181818;stroke-width:0.5;" width="4" x="452.3693" y="94.4883"/><text fill="#000000" font-family="sans-serif" font-size="14" lengthAdjust="spacing" textLength="38.7393" x="410.63" y="117.0234">nginx</text></g><!--entity bs1--><g class="entity" data-entity="bs1" data-source-line="137" data-uid="ent0005" id="entity_bs1"><rect fill="#F1F1F1" height="46.4883" rx="2.5" ry="2.5" style="stroke:#181818;stroke-width:0.5;" width="64.8008" x="255.6" y="189.9783"/><rect fill="#F1F1F1" height="10" style="stroke:#181818;stroke-width:0.5;" width="15" x="300.4008" y="194.9783"/><rect fill="#F1F1F1" height="2" style="stroke:#181818;stroke-width:0.5;" width="4" x="298.4008" y="196.9783"/><rect fill="#F1F1F1" height="2" style="stroke:#181818;stroke-width:0.5;" width="4" x="298.4008" y="200.9783"/><text fill="#000000" font-family="sans-serif" font-size="14" lengthAdjust="spacing" textLength="24.8008" x="270.6" y="223.5134">bs1</text></g><!--entity bs2--><g class="entity" data-entity="bs2" data-source-line="138" data-uid="ent0006" id="entity_bs2"><rect fill="#F1F1F1" height="46.4883" rx="2.5" ry="2.5" style="stroke:#181818;stroke-width:0.5;" width="64.8008" x="355.6" y="189.9783"/><rect fill="#F1F1F1" height="10" style="stroke:#181818;stroke-width:0.5;" width="15" x="400.4008" y="194.9783"/><rect fill="#F1F1F1" height="2" style="stroke:#181818;stroke-width:0.5;" width="4" x="398.4008" y="196.9783"/><rect fill="#F1F1F1" height="2" style="stroke:#181818;stroke-width:0.5;" width="4" x="398.4008" y="200.9783"/><text fill="#000000" font-family="sans-serif" font-size="14" lengthAdjust="spacing" textLength="24.8008" x="370.6" y="223.5134">bs2</text></g><!--entity bs3--><g class="entity" data-entity="bs3" data-source-line="139" data-uid="ent0007" id="entity_bs3"><rect fill="#F1F1F1" height="46.4883" rx="2.5" ry="2.5" style="stroke:#181818;stroke-width:0.5;" width="64.8008" x="55.6" y="189.9783"/><rect fill="#F1F1F1" height="10" style="stroke:#181818;stroke-width:0.5;" width="15" x="100.4008" y="194.9783"/><rect fill="#F1F1F1" height="2" style="stroke:#181818;stroke-width:0.5;" width="4" x="98.4008" y="196.9783"/><rect fill="#F1F1F1" height="2" style="stroke:#181818;stroke-width:0.5;" width="4" x="98.4008" y="200.9783"/><text fill="#000000" font-family="sans-serif" font-size="14" lengthAdjust="spacing" textLength="24.8008" x="70.6" y="223.5134">bs3</text></g><!--entity bs4--><g class="entity" data-entity="bs4" data-source-line="140" data-uid="ent0008" id="entity_bs4"><rect fill="#F1F1F1" height="46.4883" rx="2.5" ry="2.5" style="stroke:#181818;stroke-width:0.5;" width="64.8008" x="155.6" y="189.9783"/><rect fill="#F1F1F1" height="10" style="stroke:#181818;stroke-width:0.5;" width="15" x="200.4008" y="194.9783"/><rect fill="#F1F1F1" height="2" style="stroke:#181818;stroke-width:0.5;" width="4" x="198.4008" y="196.9783"/><rect fill="#F1F1F1" height="2" style="stroke:#181818;stroke-width:0.5;" width="4" x="198.4008" y="200.9783"/><text fill="#000000" font-family="sans-serif" font-size="14" lengthAdjust="spacing" textLength="24.8008" x="170.6" y="223.5134">bs4</text></g><!--entity bs5--><g class="entity" data-entity="bs5" data-source-line="141" data-uid="ent0009" id="entity_bs5"><rect fill="#F1F1F1" height="46.4883" rx="2.5" ry="2.5" style="stroke:#181818;stroke-width:0.5;" width="64.8008" x="55.6" y="296.4683"/><rect fill="#F1F1F1" height="10" style="stroke:#181818;stroke-width:0.5;" width="15" x="100.4008" y="301.4683"/><rect fill="#F1F1F1" height="2" style="stroke:#181818;stroke-width:0.5;" width="4" x="98.4008" y="303.4683"/><rect fill="#F1F1F1" height="2" style="stroke:#181818;stroke-width:0.5;" width="4" x="98.4008" y="307.4683"/><text fill="#000000" font-family="sans-serif" font-size="14" lengthAdjust="spacing" textLength="24.8008" x="70.6" y="330.0034">bs5</text></g><!--entity gs1--><g class="entity" data-entity="gs1" data-source-line="145" data-uid="ent0011" id="entity_gs1"><rect fill="#F1F1F1" height="46.4883" rx="2.5" ry="2.5" style="stroke:#181818;stroke-width:0.5;" width="64.7188" x="475.64" y="296.4683"/><rect fill="#F1F1F1" height="10" style="stroke:#181818;stroke-width:0.5;" width="15" x="520.3588" y="301.4683"/><rect fill="#F1F1F1" height="2" style="stroke:#181818;stroke-width:0.5;" width="4" x="518.3588" y="303.4683"/><rect fill="#F1F1F1" height="2" style="stroke:#181818;stroke-width:0.5;" width="4" x="518.3588" y="307.4683"/><text fill="#000000" font-family="sans-serif" font-size="14" lengthAdjust="spacing" textLength="24.7188" x="490.64" y="330.0034">gs1</text></g><!--entity gs2--><g class="entity" data-entity="gs2" data-source-line="146" data-uid="ent0012" id="entity_gs2"><rect fill="#F1F1F1" height="46.4883" rx="2.5" ry="2.5" style="stroke:#181818;stroke-width:0.5;" width="64.7188" x="575.64" y="296.4683"/><rect fill="#F1F1F1" height="10" style="stroke:#181818;stroke-width:0.5;" width="15" x="620.3588" y="301.4683"/><rect fill="#F1F1F1" height="2" style="stroke:#181818;stroke-width:0.5;" width="4" x="618.3588" y="303.4683"/><rect fill="#F1F1F1" height="2" style="stroke:#181818;stroke-width:0.5;" width="4" x="618.3588" y="307.4683"/><text fill="#000000" font-family="sans-serif" font-size="14" lengthAdjust="spacing" textLength="24.7188" x="590.64" y="330.0034">gs2</text></g><!--entity gs3--><g class="entity" data-entity="gs3" data-source-line="147" data-uid="ent0013" id="entity_gs3"><rect fill="#F1F1F1" height="46.4883" rx="2.5" ry="2.5" style="stroke:#181818;stroke-width:0.5;" width="64.7188" x="675.64" y="296.4683"/><rect fill="#F1F1F1" height="10" style="stroke:#181818;stroke-width:0.5;" width="15" x="720.3588" y="301.4683"/><rect fill="#F1F1F1" height="2" style="stroke:#181818;stroke-width:0.5;" width="4" x="718.3588" y="303.4683"/><rect fill="#F1F1F1" height="2" style="stroke:#181818;stroke-width:0.5;" width="4" x="718.3588" y="307.4683"/><text fill="#000000" font-family="sans-serif" font-size="14" lengthAdjust="spacing" textLength="24.7188" x="690.64" y="330.0034">gs3</text></g><!--entity ls1--><g class="entity" data-entity="ls1" data-source-line="151" data-uid="ent0015" id="entity_ls1"><rect fill="#F1F1F1" height="46.4883" rx="2.5" ry="2.5" style="stroke:#181818;stroke-width:0.5;" width="60.0361" x="795.98" y="296.4683"/><rect fill="#F1F1F1" height="10" style="stroke:#181818;stroke-width:0.5;" width="15" x="836.0161" y="301.4683"/><rect fill="#F1F1F1" height="2" style="stroke:#181818;stroke-width:0.5;" width="4" x="834.0161" y="303.4683"/><rect fill="#F1F1F1" height="2" style="stroke:#181818;stroke-width:0.5;" width="4" x="834.0161" y="307.4683"/><text fill="#000000" font-family="sans-serif" font-size="14" lengthAdjust="spacing" textLength="20.0361" x="810.98" y="330.0034">ls1</text></g><!--entity ls2--><g class="entity" data-entity="ls2" data-source-line="152" data-uid="ent0016" id="entity_ls2"><rect fill="#F1F1F1" height="46.4883" rx="2.5" ry="2.5" style="stroke:#181818;stroke-width:0.5;" width="60.0361" x="890.98" y="296.4683"/><rect fill="#F1F1F1" height="10" style="stroke:#181818;stroke-width:0.5;" width="15" x="931.0161" y="301.4683"/><rect fill="#F1F1F1" height="2" style="stroke:#181818;stroke-width:0.5;" width="4" x="929.0161" y="303.4683"/><rect fill="#F1F1F1" height="2" style="stroke:#181818;stroke-width:0.5;" width="4" x="929.0161" y="307.4683"/><text fill="#000000" font-family="sans-serif" font-size="14" lengthAdjust="spacing" textLength="20.0361" x="905.98" y="330.0034">ls2</text></g><!--entity postgres--><g class="entity" data-entity="postgres" data-source-line="156" data-uid="ent0018" id="entity_postgres"><path d="M657.41,534.4383 C657.41,524.4383 696.9994,524.4383 696.9994,524.4383 C696.9994,524.4383 736.5887,524.4383 736.5887,534.4383 L736.5887,559.9266 C736.5887,569.9266 696.9994,569.9266 696.9994,569.9266 C696.9994,569.9266 657.41,569.9266 657.41,559.9266 L657.41,534.4383" fill="#F1F1F1" style="stroke:#181818;stroke-width:0.5;"/><path d="M657.41,534.4383 C657.41,544.4383 696.9994,544.4383 696.9994,544.4383 C696.9994,544.4383 736.5887,544.4383 736.5887,534.4383" fill="none" style="stroke:#181818;stroke-width:0.5;"/><text fill="#000000" font-family="sans-serif" font-size="14" lengthAdjust="spacing" textLength="59.1787" x="667.41" y="561.9734">postgres</text></g><!--entity pgbouncer--><g class="entity" data-entity="pgbouncer" data-source-line="157" data-uid="ent0019" id="entity_pgbouncer"><rect fill="#F1F1F1" height="46.4883" rx="2.5" ry="2.5" style="stroke:#181818;stroke-width:0.5;" width="113.0283" x="588.49" y="417.9483"/><rect fill="#F1F1F1" height="10" style="stroke:#181818;stroke-width:0.5;" width="15" x="681.5183" y="422.9483"/><rect fill="#F1F1F1" height="2" style="stroke:#181818;stroke-width:0.5;" width="4" x="679.5183" y="424.9483"/><rect fill="#F1F1F1" height="2" style="stroke:#181818;stroke-width:0.5;" width="4" x="679.5183" y="428.9483"/><text fill="#000000" font-family="sans-serif" font-size="14" lengthAdjust="spacing" textLength="73.0283" x="603.49" y="451.4834">pgbouncer</text></g><!--entity redis--><g class="entity" data-entity="redis" data-source-line="158" data-uid="ent0020" id="entity_redis"><path d="M736.24,428.4483 C736.24,418.4483 763.0017,418.4483 763.0017,418.4483 C763.0017,418.4483 789.7634,418.4483 789.7634,428.4483 L789.7634,453.9366 C789.7634,463.9366 763.0017,463.9366 763.0017,463.9366 C763.0017,463.9366 736.24,463.9366 736.24,453.9366 L736.24,428.4483" fill="#F1F1F1" style="stroke:#181818;stroke-width:0.5;"/><path d="M736.24,428.4483 C736.24,438.4483 763.0017,438.4483 763.0017,438.4483 C763.0017,438.4483 789.7634,438.4483 789.7634,428.4483" fill="none" style="stroke:#181818;stroke-width:0.5;"/><text fill="#000000" font-family="sans-serif" font-size="14" lengthAdjust="spacing" textLength="33.5234" x="746.24" y="455.9834">redis</text></g><!--entity jaeger--><g class="entity" data-entity="jaeger" data-source-line="162" data-uid="ent0022" id="entity_jaeger"><rect fill="#F1F1F1" height="46.4883" rx="2.5" ry="2.5" style="stroke:#181818;stroke-width:0.5;" width="82.0479" x="165.98" y="417.9483"/><rect fill="#F1F1F1" height="10" style="stroke:#181818;stroke-width:0.5;" width="15" x="228.0279" y="422.9483"/><rect fill="#F1F1F1" height="2" style="stroke:#181818;stroke-width:0.5;" width="4" x="226.0279" y="424.9483"/><rect fill="#F1F1F1" height="2" style="stroke:#181818;stroke-width:0.5;" width="4" x="226.0279" y="428.9483"/><text fill="#000000" font-family="sans-serif" font-size="14" lengthAdjust="spacing" textLength="42.0479" x="180.98" y="451.4834">jaeger</text></g><!--entity prometheus--><g class="entity" data-entity="prometheus" data-source-line="163" data-uid="ent0023" id="entity_prometheus"><rect fill="#F1F1F1" height="46.4883" rx="2.5" ry="2.5" style="stroke:#181818;stroke-width:0.5;" width="121.5596" x="283.22" y="417.9483"/><rect fill="#F1F1F1" height="10" style="stroke:#181818;stroke-width:0.5;" width="15" x="384.7796" y="422.9483"/><rect fill="#F1F1F1" height="2" style="stroke:#181818;stroke-width:0.5;" width="4" x="382.7796" y="424.9483"/><rect fill="#F1F1F1" height="2" style="stroke:#181818;stroke-width:0.5;" width="4" x="382.7796" y="428.9483"/><text fill="#000000" font-family="sans-serif" font-size="14" lengthAdjust="spacing" textLength="81.5596" x="298.22" y="451.4834">prometheus</text></g><!--entity grafana--><g class="entity" data-entity="grafana" data-source-line="164" data-uid="ent0024" id="entity_grafana"><rect fill="#F1F1F1" height="46.4883" rx="2.5" ry="2.5" style="stroke:#181818;stroke-width:0.5;" width="91.4883" x="440.26" y="417.9483"/><rect fill="#F1F1F1" height="10" style="stroke:#181818;stroke-width:0.5;" width="15" x="511.7483" y="422.9483"/><rect fill="#F1F1F1" height="2" style="stroke:#181818;stroke-width:0.5;" width="4" x="509.7483" y="424.9483"/><rect fill="#F1F1F1" height="2" style="stroke:#181818;stroke-width:0.5;" width="4" x="509.7483" y="428.9483"/><text fill="#000000" font-family="sans-serif" font-size="14" lengthAdjust="spacing" textLength="51.4883" x="455.26" y="451.4834">grafana</text></g><!--link nginx to bs1--><g class="link" data-entity-1="nginx" data-entity-2="bs1" data-source-line="168" data-uid="lnk25" id="link_nginx_bs1"><path d="M395.22,118.4883 C376.63,124.7983 354.91,134.0983 338,146.9783 C322.78,158.5583 313.0422,170.8397 304.1222,184.7297" fill="none" id="nginx-to-bs1" style="stroke:#181818;stroke-width:1;"/><polygon fill="#181818" points="300.88,189.7783,309.109,184.3668,303.5818,185.5711,302.3775,180.0439,300.88,189.7783" style="stroke:#181818;stroke-width:1;"/></g><!--link nginx to bs2--><g class="link" data-entity-1="nginx" data-entity-2="bs2" data-source-line="169" data-uid="lnk26" id="link_nginx_bs2"><path d="M424.8,130.4083 C416.92,147.9283 408.5223,166.6068 400.6423,184.1168" fill="none" id="nginx-to-bs2" style="stroke:#181818;stroke-width:1;"/><polygon fill="#181818" points="398.18,189.5883,405.5211,183.0226,400.2319,185.0287,398.2258,179.7395,398.18,189.5883" style="stroke:#181818;stroke-width:1;"/></g><!--link nginx to gs1--><g class="link" data-entity-1="nginx" data-entity-2="gs1" data-source-line="170" data-uid="lnk27" id="link_nginx_gs1"><path d="M442.81,130.3083 C456.83,170.8083 484.1182,249.688 498.1682,290.298" fill="none" id="nginx-to-gs1" style="stroke:#181818;stroke-width:1;"/><polygon fill="#181818" points="500.13,295.9683,500.9675,286.1551,498.4952,291.2431,493.4072,288.7708,500.13,295.9683" style="stroke:#181818;stroke-width:1;"/></g><!--link nginx to ls1--><g class="link" data-entity-1="nginx" data-entity-2="ls1" data-source-line="171" data-uid="lnk28" id="link_nginx_ls1"><path d="M474.66,120.9983 C537.47,143.0283 662.31,190.9783 756,253.4683 C774.24,265.6283 788.098,278.2959 801.298,291.8759" fill="none" id="nginx-to-ls1" style="stroke:#181818;stroke-width:1;"/><polygon fill="#181818" points="805.48,296.1783,802.0752,286.9367,801.995,292.5929,796.3387,292.5127,805.48,296.1783" style="stroke:#181818;stroke-width:1;"/></g><!--link bs1 to gs1--><g class="link" data-entity-1="bs1" data-entity-2="gs1" data-source-line="173" data-uid="lnk29" id="link_bs1_gs1"><path d="M320.64,230.1183 C326.34,232.4883 332.27,234.7183 338,236.4683 C380.29,249.3183 396.27,234.0783 436,253.4683 C456.77,263.5983 471.874,277.1469 485.194,291.6669" fill="none" id="bs1-to-gs1" style="stroke:#181818;stroke-width:1;"/><polygon fill="#181818" points="489.25,296.0883,486.1136,286.7522,485.87,292.4038,480.2184,292.1602,489.25,296.0883" style="stroke:#181818;stroke-width:1;"/></g><!--link bs1 to ls1--><g class="link" data-entity-1="bs1" data-entity-2="ls1" data-source-line="174" data-uid="lnk30" id="link_bs1_ls1"><path d="M320.74,230.8683 C326.37,233.1283 332.26,235.1183 338,236.4683 C428.53,257.6183 670.21,217.6483 756,253.4683 C777.46,262.4183 792.5179,276.515 805.2579,291.595" fill="none" id="bs1-to-ls1" style="stroke:#181818;stroke-width:1;"/><polygon fill="#181818" points="809.13,296.1783,806.3774,286.7219,805.9032,292.3589,800.2663,291.8847,809.13,296.1783" style="stroke:#181818;stroke-width:1;"/></g><!--link gs1 to pgbouncer--><g class="link" data-entity-1="gs1" data-entity-2="pgbouncer" data-source-line="176" data-uid="lnk31" id="link_gs1_pgbouncer"><path d="M531.95,343.2783 C540.14,350.8883 549.4,359.3583 558,366.9483 C577.69,384.3283 595.7815,399.5882 613.0615,413.9182" fill="none" id="gs1-to-pgbouncer" style="stroke:#181818;stroke-width:1;"/><polygon fill="#181818" points="617.68,417.7483,613.3056,408.9242,613.8312,414.5566,608.1989,415.0822,617.68,417.7483" style="stroke:#181818;stroke-width:1;"/></g><!--link pgbouncer to postgres--><g class="link" data-entity-1="pgbouncer" data-entity-2="postgres" data-source-line="177" data-uid="lnk32" id="link_pgbouncer_postgres"><path d="M656.28,464.7583 C665.07,482.3183 674.5067,501.1917 683.2367,518.6517" fill="none" id="pgbouncer-to-postgres" style="stroke:#181818;stroke-width:1;"/><polygon fill="#181818" points="685.92,524.0183,685.4728,514.1796,683.6839,519.5461,678.3174,517.7573,685.92,524.0183" style="stroke:#181818;stroke-width:1;"/></g><!--link ls1 to postgres--><g class="link" data-entity-1="ls1" data-entity-2="postgres" data-source-line="179" data-uid="lnk33" id="link_ls1_postgres"><path d="M829.67,343.3283 C834,377.8483 837.2,444.2983 807,488.4383 C790.68,512.2883 766.9667,524.9978 742.6767,533.5878" fill="none" id="ls1-to-postgres" style="stroke:#181818;stroke-width:1;"/><polygon fill="#181818" points="737.02,535.5883,746.8387,536.3587,741.7339,533.9212,744.1714,528.8165,737.02,535.5883" style="stroke:#181818;stroke-width:1;"/></g><!--link gs1 to redis--><g class="link" data-entity-1="gs1" data-entity-2="redis" data-source-line="181" data-uid="lnk34" id="link_gs1_redis"><path d="M526.08,343.2683 C534.7,352.3283 545.79,361.8183 558,366.9483 C591.02,380.8383 687.8,357.3483 719,374.9483 C735.78,384.4183 744.8603,397.8217 751.9403,412.8317" fill="none" id="gs1-to-redis" style="stroke:#181818;stroke-width:1;"/><polygon fill="#181818" points="754.5,418.2583,754.2783,408.4119,752.367,413.7361,747.0428,411.8248,754.5,418.2583" style="stroke:#181818;stroke-width:1;"/></g><!--link bs1 to jaeger--><g class="link" data-entity-1="bs1" data-entity-2="jaeger" data-source-line="183" data-uid="lnk35" id="link_bs1_jaeger"><path d="M279.94,236.7083 C264.45,279.9183 232.7238,368.4099 217.1738,411.8099" fill="none" id="bs1-to-jaeger" style="stroke:#181818;stroke-width:1;"/><polygon fill="#181818" points="215.15,417.4583,221.9513,410.3349,216.8365,412.7513,214.4201,407.6365,215.15,417.4583" style="stroke:#181818;stroke-width:1;"/></g><!--link gs1 to prometheus--><g class="link" data-entity-1="gs1" data-entity-2="prometheus" data-source-line="184" data-uid="lnk36" id="link_gs1_prometheus"><path d="M475.47,341.7883 C463.14,349.7283 448.95,358.8083 436,366.9483 C430.26,370.5583 428.52,371.0083 423,374.9483 C404.48,388.1983 389.2796,400.5966 374.1596,413.5966" fill="none" id="gs1-to-prometheus" style="stroke:#181818;stroke-width:1;"/><polygon fill="#181818" points="369.61,417.5083,379.0422,414.6738,373.4013,414.2485,373.8266,408.6077,369.61,417.5083" style="stroke:#181818;stroke-width:1;"/></g><!--SRC=[TP71JiCm38RlUGfhznqOS4K2LOB3Tk89tDJB0crSEIbYGhmxQTPsMICkLVpxp_VNJh2X9QYeR_dSaGlmBFfa0-am22dbk27OLAm_IU2DVTZ0Zr80chkUtUXtnhhlKJeATj7xmW7UIRwi9Z-Q0N9txUyAPLSezuNoK2YFKVdDSb_7x__1fWWsHR19mJbqJzYGr8pIbCYsGBO9cGCg30XxF9FCzvkerEW9-hXD8-HNZDxKF3XDSkiMQgnVmG_iR62npfG_zu5a9aR65kued6XOXnh18pfC_9YGtXIsswVqNdcroofpqnkteQ9zQStdr31JSPrkELtqUHcgdPsBCj-zh63XJXCkvEjiVm00]--></g></svg>